<svg width="551" height="280" viewBox="0 0 551 280" fill="none" xmlns="http://www.w3.org/2000/svg">
<path d="M118.6 163.6C129.8 163.6 132.6 160.8 132.6 150V14C132.6 2.79999 129.8 -1.90735e-05 118.6 -1.90735e-05H13.8C3 -1.90735e-05 0.2 2.79999 0.2 14V102H62.6V56H68.6V108H13.8C3 108 0.2 110.8 0.2 121.6V280H132.6V170H70.2V224H64.2V163.6H118.6ZM273.272 14C273.272 2.79999 270.072 -1.90735e-05 259.272 -1.90735e-05H152.472C141.672 -1.90735e-05 138.872 2.79999 138.872 14V266C138.872 277.2 141.672 280 152.472 280H259.272C270.072 280 273.272 277.2 273.272 266V14ZM202.872 56H208.872V224H202.872V56ZM397.506 163.6C408.706 163.6 411.506 160.8 411.506 150V14C411.506 2.79999 408.706 -1.90735e-05 397.506 -1.90735e-05H292.706C281.906 -1.90735e-05 279.106 2.79999 279.106 14V102H341.506V56H347.506V108H292.706C281.906 108 279.106 110.8 279.106 121.6V280H411.506V170H349.106V224H343.106V163.6H397.506ZM550.178 14C550.178 2.79999 547.378 -1.90735e-05 536.178 -1.90735e-05H431.378C420.578 -1.90735e-05 417.778 2.79999 417.778 14V102H480.178V56H486.178V108H417.778V163.6H486.178V224H480.178V170H417.778V266C417.778 277.2 420.578 280 431.378 280H536.178C547.378 280 550.178 277.2 550.178 266V152.8C550.178 142 547.378 138.4 536.178 138.4H533.778V133.6H536.178C547.378 133.6 550.178 130.4 550.178 119.6V14Z" fill="#1E1E1E"/>
</svg>
