<svg width="351" height="131" viewBox="0 0 351 131" fill="none" xmlns="http://www.w3.org/2000/svg">
<path d="M0.67634 131H32.1543V95.2381H35.3207V131H67.7299V7.50961C67.7299 2.29434 66.0536 0.617995 60.8383 0.617995H7.3817C2.16642 0.617995 0.67634 2.29434 0.67634 7.50961V131ZM32.1543 28.7433H35.3207V67.1128H32.1543V28.7433ZM103.297 131V28.7433H106.463V131H139.059V7.50961C139.059 2.29434 137.382 0.617995 132.167 0.617995H70.8876V131H103.297ZM174.6 49.9769V28.7433H177.766V46.8105H209.244V7.50961C209.244 2.29434 207.568 0.617995 202.352 0.617995H148.896C143.68 0.617995 142.19 2.29434 142.19 7.50961V71.3968C142.19 76.6121 143.68 78.1022 148.896 78.1022H176.835V102.875H173.668V81.2686H142.19V124.108C142.19 129.324 143.68 131 148.896 131H202.352C207.568 131 209.244 129.324 209.244 124.108V56.8685C209.244 51.6532 207.568 49.9769 202.352 49.9769H174.6ZM280.573 7.50961C280.573 2.29434 278.896 0.617995 273.681 0.617995H219.107C213.892 0.617995 212.402 2.29434 212.402 7.50961V124.108C212.402 129.324 213.892 131 219.107 131H273.681C278.896 131 280.573 129.324 280.573 124.108V7.50961ZM244.811 102.875V70.838L247.977 67.6716V102.875H244.811ZM244.811 28.7433H247.977V60.78L244.811 63.9464V28.7433ZM318.162 67.1128H314.996V28.7433H318.162V67.1128ZM283.704 88.3465C283.704 93.5617 285.194 95.2381 290.41 95.2381H318.162V102.875H314.996V98.5908H283.704V124.108C283.704 129.324 285.194 131 290.41 131H343.866C349.081 131 350.758 129.324 350.758 124.108V7.50961C350.758 2.29434 349.081 0.617995 343.866 0.617995H290.41C285.194 0.617995 283.704 2.29434 283.704 7.50961V88.3465Z" fill="#F9F9F9"/>
</svg>
