<svg width="51" height="54" viewBox="0 0 51 54" fill="none" xmlns="http://www.w3.org/2000/svg">
<path d="M44.4125 4.5H6.5875C5.96756 4.5 5.373 4.76076 4.93464 5.22491C4.49627 5.68906 4.25 6.31859 4.25 6.975V47.025C4.25 47.6814 4.49627 48.3109 4.93464 48.7751C5.373 49.2392 5.96756 49.5 6.5875 49.5H26.945V32.0625H21.42V25.3125H26.945V20.25C26.8306 19.0615 26.9631 17.8608 27.3333 16.7322C27.7035 15.6036 28.3024 14.5745 29.088 13.7169C29.8736 12.8594 30.8269 12.1942 31.881 11.768C32.9351 11.3419 34.0645 11.1651 35.19 11.25C36.8439 11.2392 38.4971 11.3294 40.1413 11.52V17.595H36.7625C34.085 17.595 33.575 18.945 33.575 20.9025V25.245H39.95L39.1213 31.995H33.575V49.5H44.4125C44.7195 49.5 45.0234 49.436 45.307 49.3116C45.5906 49.1872 45.8483 49.0049 46.0654 48.7751C46.2824 48.5453 46.4546 48.2724 46.5721 47.9721C46.6895 47.6719 46.75 47.35 46.75 47.025V6.975C46.75 6.64998 46.6895 6.32814 46.5721 6.02786C46.4546 5.72758 46.2824 5.45474 46.0654 5.22491C45.8483 4.99509 45.5906 4.81278 45.307 4.6884C45.0234 4.56402 44.7195 4.5 44.4125 4.5Z" fill="white"/>
</svg>
