<svg width="1512" height="447" viewBox="0 0 1512 447" fill="none" xmlns="http://www.w3.org/2000/svg">
<path d="M187.666 169.221V96.4243H206.001V158.366H388.275V23.6271C388.275 5.74714 378.568 0 348.369 0H38.8275C8.62834 0 0 5.74714 0 23.6271V242.657C0 260.537 8.62834 265.646 38.8275 265.646H200.609V350.576H182.274V276.501H0V423.373C0 441.253 8.62834 447 38.8275 447H348.369C378.568 447 388.275 441.253 388.275 423.373V192.849C388.275 174.969 378.568 169.221 348.369 169.221H187.666Z" fill="black"/>
<path d="M594.226 96.4243H612.561V256.706H594.226V96.4243ZM594.226 353.13H761.4C791.599 353.13 801.306 347.383 801.306 329.503V23.6271C801.306 5.74714 791.599 0 761.4 0H406.56V447H594.226V353.13Z" fill="black"/>
<path d="M1213.13 23.6271C1213.13 5.74714 1203.43 0 1173.23 0H857.213C827.014 0 818.386 5.74714 818.386 23.6271V423.373C818.386 441.253 827.014 447 857.213 447H1173.23C1203.43 447 1213.13 441.253 1213.13 423.373V23.6271ZM1006.05 350.576V96.4243H1024.39V350.576H1006.05Z" fill="black"/>
<path d="M1464.23 96.4243H1516V0H1223.72V96.4243H1275.49V447H1464.23V96.4243Z" fill="black"/>
</svg>
