<svg width="1355" height="416" viewBox="0 0 1355 416" fill="none" xmlns="http://www.w3.org/2000/svg">
<g filter="url(#filter0_d_465_3784)">
<path d="M141.417 154.457V88.0114H154.842V144.549H288.31V21.5657C288.31 5.24571 281.202 0 259.089 0H32.431C10.318 0 4 5.24571 4 21.5657V221.486C4 237.806 10.318 242.469 32.431 242.469H150.894V319.989H137.468V252.377H4V386.434C4 402.754 10.318 408 32.431 408H259.089C281.202 408 288.31 402.754 288.31 386.434V176.023C288.31 159.703 281.202 154.457 259.089 154.457H141.417Z" fill="white"/>
<path d="M518.091 88.0114H531.516V234.309H518.091V88.0114ZM518.091 322.32H640.502C662.615 322.32 669.723 317.074 669.723 300.754V21.5657C669.723 5.24571 662.615 0 640.502 0H380.674V408H518.091V322.32Z" fill="white"/>
<path d="M1050.25 21.5657C1050.25 5.24571 1043.15 0 1021.03 0H789.635C767.522 0 761.204 5.24571 761.204 21.5657V386.434C761.204 402.754 767.522 408 789.635 408H1021.03C1043.15 408 1050.25 402.754 1050.25 386.434V21.5657ZM898.621 319.989V88.0114H912.047V319.989H898.621Z" fill="white"/>
<path d="M1313.09 88.0114H1351V0H1136.98V88.0114H1174.89V408H1313.09V88.0114Z" fill="white"/>
</g>
<defs>
<filter id="filter0_d_465_3784" x="0" y="0" width="1355" height="416" filterUnits="userSpaceOnUse" color-interpolation-filters="sRGB">
<feFlood flood-opacity="0" result="BackgroundImageFix"/>
<feColorMatrix in="SourceAlpha" type="matrix" values="0 0 0 0 0 0 0 0 0 0 0 0 0 0 0 0 0 0 127 0" result="hardAlpha"/>
<feOffset dy="4"/>
<feGaussianBlur stdDeviation="2"/>
<feComposite in2="hardAlpha" operator="out"/>
<feColorMatrix type="matrix" values="0 0 0 0 0 0 0 0 0 0 0 0 0 0 0 0 0 0 0.25 0"/>
<feBlend mode="normal" in2="BackgroundImageFix" result="effect1_dropShadow_465_3784"/>
<feBlend mode="normal" in="SourceGraphic" in2="effect1_dropShadow_465_3784" result="shape"/>
</filter>
</defs>
</svg>
