<svg width="43" height="45" viewBox="0 0 43 45" fill="none" xmlns="http://www.w3.org/2000/svg">
<path d="M21.25 0C27.0236 0 27.744 0.0224999 30.0092 0.135C32.2724 0.2475 33.813 0.62325 35.1687 1.18125C36.5712 1.75275 37.7528 2.52675 38.9342 3.7755C40.0148 4.90027 40.8509 6.26082 41.3844 7.7625C41.9093 9.19575 42.2663 10.8292 42.3725 13.2255C42.4724 15.624 42.5 16.3867 42.5 22.5C42.5 28.6133 42.4788 29.376 42.3725 31.7745C42.2663 34.1707 41.9093 35.802 41.3844 37.2375C40.8524 38.74 40.0161 40.1009 38.9342 41.2245C37.8717 42.3682 36.5868 43.2534 35.1687 43.8188C33.8151 44.3745 32.2724 44.7525 30.0092 44.865C27.744 44.9708 27.0236 45 21.25 45C15.4764 45 14.756 44.9775 12.4907 44.865C10.2276 44.7525 8.687 44.3745 7.33125 43.8188C5.91244 43.2551 4.62725 42.3696 3.56575 41.2245C2.48499 40.0999 1.64885 38.7393 1.11563 37.2375C0.588625 35.8042 0.23375 34.1707 0.1275 31.7745C0.0276249 29.376 0 28.6133 0 22.5C0 16.3867 0.0212499 15.624 0.1275 13.2255C0.23375 10.827 0.588625 9.198 1.11563 7.7625C1.64738 6.2599 2.48371 4.89897 3.56575 3.7755C4.62755 2.63077 5.91266 1.74539 7.33125 1.18125C8.687 0.62325 10.2255 0.2475 12.4907 0.135C14.756 0.0292499 15.4764 0 21.25 0ZM21.25 11.25C18.4321 11.25 15.7296 12.4353 13.737 14.545C11.7444 16.6548 10.625 19.5163 10.625 22.5C10.625 25.4837 11.7444 28.3452 13.737 30.455C15.7296 32.5647 18.4321 33.75 21.25 33.75C24.0679 33.75 26.7704 32.5647 28.763 30.455C30.7556 28.3452 31.875 25.4837 31.875 22.5C31.875 19.5163 30.7556 16.6548 28.763 14.545C26.7704 12.4353 24.0679 11.25 21.25 11.25ZM35.0625 10.6875C35.0625 9.94158 34.7826 9.22621 34.2845 8.69876C33.7864 8.17132 33.1107 7.875 32.4062 7.875C31.7018 7.875 31.0261 8.17132 30.528 8.69876C30.0299 9.22621 29.75 9.94158 29.75 10.6875C29.75 11.4334 30.0299 12.1488 30.528 12.6762C31.0261 13.2037 31.7018 13.5 32.4062 13.5C33.1107 13.5 33.7864 13.2037 34.2845 12.6762C34.7826 12.1488 35.0625 11.4334 35.0625 10.6875ZM21.25 15.75C22.9408 15.75 24.5623 16.4612 25.7578 17.727C26.9534 18.9929 27.625 20.7098 27.625 22.5C27.625 24.2902 26.9534 26.0071 25.7578 27.273C24.5623 28.5388 22.9408 29.25 21.25 29.25C19.5592 29.25 17.9377 28.5388 16.7422 27.273C15.5466 26.0071 14.875 24.2902 14.875 22.5C14.875 20.7098 15.5466 18.9929 16.7422 17.727C17.9377 16.4612 19.5592 15.75 21.25 15.75Z" fill="white"/>
</svg>
