<svg width="43" height="36" viewBox="0 0 43 36" fill="none" xmlns="http://www.w3.org/2000/svg">
<path d="M41.5289 5.6205C42.5 9.63 42.5 18 42.5 18C42.5 18 42.5 26.37 41.5289 30.3795C40.9891 32.5958 39.4102 34.3395 37.4106 34.929C33.779 36 21.25 36 21.25 36C21.25 36 8.72738 36 5.08938 34.929C3.08125 34.3305 1.5045 32.589 0.971125 30.3795C6.33299e-08 26.37 0 18 0 18C0 18 6.33299e-08 9.63 0.971125 5.6205C1.51088 3.40425 3.08975 1.6605 5.08938 1.071C8.72738 -4.02331e-07 21.25 0 21.25 0C21.25 0 33.779 -4.02331e-07 37.4106 1.071C39.4188 1.6695 40.9955 3.411 41.5289 5.6205ZM17 25.875L29.75 18L17 10.125V25.875Z" fill="white"/>
</svg>
